<?xml version="1.0" ?><svg viewBox="0 0 401.24 215.47" xmlns="http://www.w3.org/2000/svg"><title/><g data-name="Layer 2" id="Layer_2"><g data-name="sandwich, bread, ham, tomato, salad, food, meal, fast, restaurant, junk, fastfood" id="sandwich_bread_ham_tomato_salad_food_meal_fast_restaurant_junk_fastfood"><path d="M316.91,93.55a5.32,5.32,0,0,0,2.57-.66l1.88-1a5.39,5.39,0,0,0-5.16-9.47l-1.88,1a5.39,5.39,0,0,0,2.59,10.12Z"/><path d="M293.92,71.64a5.4,5.4,0,0,0,5.18-3.9l.47-1.62a5.39,5.39,0,0,0-10.36-3l-.47,1.62a5.4,5.4,0,0,0,3.68,6.68A5.6,5.6,0,0,0,293.92,71.64Z"/><path d="M23.52,148.27a5.33,5.33,0,0,0,1-.11,5.39,5.39,0,0,0,4.26-6.32A35.23,35.23,0,0,1,29,127C33,109.36,43.73,106.23,44.1,106.12a5.39,5.39,0,0,0,4.06-6.06,129.08,129.08,0,0,1-1.43-26.91c1.21-20.63,18-36.69,38.29-36.69h.3c1.3,0,2.09.08,2.16.09a5.39,5.39,0,0,0,1.08-10.72c-.12,0-1.27-.13-3.15-.15H85c-26,0-47.51,20.5-49,46.84a136,136,0,0,0,1,25c-5.57,3-14.61,10.31-18.48,27a45.89,45.89,0,0,0-.21,19.33A5.4,5.4,0,0,0,23.52,148.27Z"/><path d="M86.53,82.4a5.39,5.39,0,0,0-5.17,9.47l1.88,1a5.39,5.39,0,1,0,5.17-9.46Z"/><path d="M106.84,59.45a5.38,5.38,0,0,0-3.68,6.67l.46,1.62a5.4,5.4,0,0,0,5.18,3.9,5.47,5.47,0,0,0,1.49-.21A5.4,5.4,0,0,0,114,64.76l-.47-1.62A5.38,5.38,0,0,0,106.84,59.45Z"/><path d="M19,215.47h363.2a19,19,0,0,0,13.17-32.62L343.8,133.11a72.59,72.59,0,0,0-68.45-96.73,73.1,73.1,0,0,0-7.41.38A5.39,5.39,0,1,0,269,47.48a63.23,63.23,0,0,1,6.32-.32,61.82,61.82,0,0,1,59.76,77.57L261.06,53.34a5.39,5.39,0,1,0-7.48,7.76L387.9,190.61a8.19,8.19,0,0,1-5.68,14.08h-6.31l-26.35-25.86a5.4,5.4,0,0,0-7.56,7.7l18.52,18.16H19a8.19,8.19,0,0,1-5.68-14.08L173.21,36.46a5.38,5.38,0,0,0,3.71-3.58l18-17.37a8.16,8.16,0,0,1,11.36,0l29.06,28a5.39,5.39,0,1,0,7.48-7.76l-1.65-1.59c8.84-2.95,15.17-7.31,18.81-13,0-.06.21-.3.5-.68a24.92,24.92,0,0,1,18.55-9.69,25.23,25.23,0,0,1,19.66,7.94c5.72,6.1,9.64,11.26,11,14.55a5.42,5.42,0,0,0,5.49,3.24s.8-.07,2.16-.09h.3c20.29,0,37.08,16.06,38.29,36.69a127.76,127.76,0,0,1-1.43,26.91,5.31,5.31,0,0,0,4,6c.46.13,11.14,3.26,15.24,20.91a35.39,35.39,0,0,1,.13,14.83,5.39,5.39,0,1,0,10.58,2.07,46.22,46.22,0,0,0-.21-19.33c-3.88-16.71-12.92-24-18.48-27a136,136,0,0,0,.95-25c-1.53-26.27-22.93-46.73-48.84-46.84a88,88,0,0,0-11.33-14.29A35.91,35.91,0,0,0,252,14c-.6.78-.91,1.25-1,1.32-3.6,5.61-11.79,8.63-18.8,10.23L213.79,7.75a18.92,18.92,0,0,0-26.34,0L169.34,25.21c-6.72-1.66-14.21-4.65-17.66-10,0,0-.3-.47-.91-1.25a35.88,35.88,0,0,0-50.2-6.57A5.39,5.39,0,0,0,107.12,16a25.08,25.08,0,0,1,35.1,4.56c.28.36.44.6.44.6h0c3.54,5.5,9.51,9.75,17.79,12.69l-93.13,89.8a61.82,61.82,0,0,1,60.05-76.43,63.23,63.23,0,0,1,6.32.32,5.39,5.39,0,1,0,1.09-10.72,72.57,72.57,0,0,0-80,72.2A72.25,72.25,0,0,0,58.55,132L5.85,182.85A19,19,0,0,0,19,215.47Z"/><path d="M325,167.72a5.39,5.39,0,0,0,3.78-9.23l-4-4a5.39,5.39,0,0,0-7.55,7.7l4,4A5.36,5.36,0,0,0,325,167.72Z"/><path d="M209.79,49.25a5.4,5.4,0,0,0,.07,7.62l87.37,85.72a5.39,5.39,0,1,0,7.55-7.69L217.41,49.18A5.38,5.38,0,0,0,209.79,49.25Z"/></g></g></svg>